<?xml version="1.0" standalone="no"?>
<!DOCTYPE svg PUBLIC "-//W3C//DTD SVG 20010904//EN"
 "http://www.w3.org/TR/2001/REC-SVG-20010904/DTD/svg10.dtd">
<svg version="1.0" xmlns="http://www.w3.org/2000/svg"
 width="1024.000000pt" height="1024.000000pt" viewBox="0 0 1024.000000 1024.000000"
 preserveAspectRatio="xMidYMid meet">

<g transform="translate(0.000000,1024.000000) scale(0.100000,-0.100000)"
fill="#000000" stroke="none">
<path d="M1143 6735 c-102 -31 -176 -96 -222 -195 l-26 -55 0 -1045 0 -1045
26 -56 c36 -76 86 -129 161 -170 l63 -34 552 -3 552 -3 3 -109 3 -109 -270 -3
c-248 -3 -272 -5 -299 -23 -38 -26 -56 -71 -56 -145 l0 -60 770 0 770 0 0 65
c0 84 -19 121 -73 146 -38 17 -68 19 -289 19 l-248 0 0 110 0 109 503 3 502 3
55 26 c82 39 144 99 182 177 l33 67 3 1015 c3 1136 6 1090 -66 1186 -21 27
-59 64 -86 81 -98 66 -29 63 -1325 62 -943 0 -1184 -3 -1218 -14z m777 -925
l0 -190 -200 0 -200 0 0 193 0 192 200 -3 200 -3 0 -189z m788 -116 c32 -9 58
-17 59 -18 3 -3 -305 -957 -311 -963 -7 -7 -128 14 -136 24 -4 5 37 148 92
318 55 171 125 388 155 483 39 120 60 172 70 172 8 0 40 -7 71 -16z m-418
-240 l42 -46 -116 -117 -116 -116 95 -95 c52 -52 95 -99 95 -105 0 -6 -20 -30
-44 -54 -37 -37 -47 -41 -64 -32 -11 6 -79 72 -151 148 l-131 138 162 162 c90
90 168 163 174 163 6 0 31 -21 54 -46z m778 -122 l151 -159 -152 -151 c-84
-84 -159 -152 -167 -152 -8 0 -34 19 -57 42 l-43 42 111 112 111 112 -107 111
c-96 99 -106 113 -94 128 33 45 64 73 79 73 9 0 85 -71 168 -158z"/>
<path d="M6080 5900 l0 -590 110 0 110 0 0 590 0 590 -110 0 -110 0 0 -590z"/>
<path d="M5374 6190 c-106 -35 -178 -118 -199 -232 l-7 -38 109 0 110 0 11 39
c17 54 52 76 127 75 74 0 117 -21 139 -68 19 -41 21 -96 4 -96 -52 -2 -353
-61 -389 -77 -101 -45 -149 -119 -149 -229 0 -109 49 -187 147 -236 56 -27 75
-32 146 -32 100 -1 143 13 213 70 l54 44 0 -27 c0 -72 2 -73 114 -73 l102 0
-1 328 c-1 279 -4 334 -18 377 -24 72 -67 119 -144 157 -62 30 -74 32 -187 35
-99 3 -132 -1 -182 -17z m306 -525 c0 -38 -6 -78 -15 -94 -51 -99 -212 -135
-277 -62 -58 65 -24 156 68 179 49 12 183 39 207 41 15 1 17 -8 17 -64z"/>
<path d="M6683 6192 c-134 -48 -223 -157 -253 -310 -19 -93 -8 -271 20 -345
64 -169 262 -270 469 -239 138 20 251 105 287 215 9 29 19 58 22 65 3 9 -23
12 -110 12 l-114 0 -15 -32 c-8 -17 -26 -41 -41 -52 -34 -24 -131 -33 -181
-17 -68 23 -127 113 -127 194 l0 27 295 0 295 0 0 75 c0 193 -73 326 -215 392
-52 24 -75 28 -170 30 -87 3 -121 0 -162 -15z m214 -174 c18 -5 46 -25 62 -43
30 -34 58 -111 46 -124 -4 -3 -87 -7 -186 -9 l-179 -3 0 23 c1 62 70 151 128
164 15 3 32 7 37 9 12 3 47 -3 92 -17z"/>
<path d="M7705 6191 c-43 -19 -91 -68 -106 -108 -16 -44 -29 -25 -27 40 2 34
0 63 -4 65 -5 1 -53 2 -108 2 l-100 0 0 -440 0 -440 109 0 109 0 5 258 c2 161
8 271 16 295 29 90 120 143 234 135 l52 -3 3 108 3 107 -73 0 c-49 0 -86 -6
-113 -19z"/>
<path d="M8179 6197 c-125 -35 -201 -117 -223 -239 l-7 -38 111 0 c98 0 110 2
110 18 0 34 38 80 76 92 45 15 127 7 161 -15 28 -18 53 -71 53 -110 0 -33 -14
-38 -180 -63 -167 -26 -225 -43 -279 -82 -87 -63 -117 -200 -67 -305 50 -107
140 -158 276 -159 74 0 94 3 143 27 31 16 67 41 81 58 31 36 36 36 36 2 0 -72
2 -73 112 -73 l99 0 -3 338 c-3 330 -4 338 -27 389 -27 61 -84 116 -150 146
-57 26 -249 34 -322 14z m279 -541 c-4 -83 -20 -114 -77 -153 -63 -43 -173
-42 -217 2 -19 19 -24 35 -24 73 0 85 23 99 245 140 83 16 78 20 73 -62z"/>
<path d="M4250 6188 c0 -8 136 -396 233 -668 l74 -205 130 -3 129 -3 152 438
c84 241 152 440 152 443 0 3 -53 4 -117 3 l-117 -1 -47 -154 c-26 -84 -69
-227 -97 -317 l-49 -165 -31 100 c-17 54 -58 191 -92 304 -34 113 -65 211 -68
218 -5 10 -40 14 -130 15 -67 1 -122 -1 -122 -5z"/>
<path d="M4488 4914 c-161 -109 -149 -92 -146 -216 l3 -106 125 84 125 85 3
-453 2 -453 105 -2 105 -1 0 569 0 569 -104 0 -104 0 -114 -76z"/>
<path d="M6665 4972 c-137 -48 -220 -156 -239 -314 l-6 -48 109 0 108 0 7 42
c8 52 39 107 74 133 41 30 156 33 200 6 79 -50 94 -143 40 -251 -24 -49 -62
-94 -168 -199 -75 -75 -187 -179 -248 -231 l-112 -95 0 -82 0 -81 391 1 392 2
0 85 0 85 -238 5 -237 5 93 81 c137 119 280 270 317 336 18 31 40 90 48 130
38 182 -42 329 -211 389 -73 26 -247 26 -320 1z"/>
<path d="M7503 4898 l-133 -91 0 -109 0 -110 28 17 c15 10 69 47 121 82 51 34
96 63 100 63 3 0 6 -201 6 -447 l0 -447 103 -4 102 -4 0 571 0 571 -97 0 -98
-1 -132 -91z"/>
<path d="M5022 4683 c5 -21 39 -139 75 -263 36 -124 86 -299 113 -390 l47
-165 69 -7 c38 -4 92 -6 119 -4 48 2 50 4 63 42 21 61 134 466 140 497 2 15 7
27 11 27 3 0 16 -42 28 -93 13 -50 47 -177 75 -280 l53 -188 117 -2 117 -3 10
41 c8 32 198 685 231 798 l9 28 -112 -3 -112 -3 -74 -294 c-51 -200 -77 -288
-82 -275 -4 10 -40 136 -79 279 -39 143 -74 268 -76 278 -5 15 -19 17 -108 17
l-103 0 -77 -287 c-42 -159 -80 -296 -84 -306 -5 -12 -31 75 -76 255 -37 150
-72 288 -78 306 l-10 32 -108 0 -108 0 10 -37z"/>
</g>
</svg>
